<svg xmlns="http://www.w3.org/2000/svg" xmlns:xlink="http://www.w3.org/1999/xlink" viewBox="0 0 28 26"><path d="M26.24,7.2h-4a8.28,8.28,0,0,0-16.42,0h-4A1.76,1.76,0,0,0,0,9V24.24A1.76,1.76,0,0,0,1.76,26H26.24A1.76,1.76,0,0,0,28,24.24V9A1.76,1.76,0,0,0,26.24,7.2M14,1a7.3,7.3,0,0,1,7.2,6.2H6.8A7.3,7.3,0,0,1,14,1M27,24.24a.76.76,0,0,1-.76.76H1.76A.76.76,0,0,1,1,24.24V9a.76.76,0,0,1,.76-.76h4a.28.28,0,0,0,0,.09v3.35h1V8.29a.28.28,0,0,1,0-.09H21.29v3.44h1V8.2h3.95A.76.76,0,0,1,27,9Z" fill="currentColor"/></svg>