<svg xmlns="http://www.w3.org/2000/svg" xmlns:xlink="http://www.w3.org/1999/xlink" viewBox="0 0 23.4 17.78"><path d="M19.82,1A2.59,2.59,0,0,1,22.4,3.58V14.2a2.58,2.58,0,0,1-2.58,2.58H3.58A2.58,2.58,0,0,1,1,14.2V3.58A2.59,2.59,0,0,1,3.58,1H19.82m0-1H3.58A3.58,3.58,0,0,0,0,3.58V14.2a3.58,3.58,0,0,0,3.58,3.58H19.82A3.58,3.58,0,0,0,23.4,14.2V3.58A3.58,3.58,0,0,0,19.82,0"/><line x1="1.37" y1="1.51" x2="11.7" y2="10.03" fill="none" stroke="currentColor" stroke-linecap="round" stroke-linejoin="round"/><line x1="22.03" y1="1.51" x2="11.7" y2="10.03" fill="none" stroke="currentColor" stroke-linecap="round" stroke-linejoin="round"/><line x1="3.85" y1="13.21" x2="8.25" y2="13.21" fill="none" stroke="currentColor" stroke-linecap="round" stroke-linejoin="round"/></svg>