<svg xmlns="http://www.w3.org/2000/svg" xmlns:xlink="http://www.w3.org/1999/xlink" viewBox="0 0 24.98 29"><path d="M6,7.5H6A.5.5,0,0,1,6.5,7h9a.5.5,0,0,1,0,1h-9A.5.5,0,0,1,6,7.5" fill="currentColor"/><path d="M22.88,12.29l.69.69-10.1,10.1-.86.11.15-.78Zm0-1.41-11,11-.48,2.44L13.94,24,25,13Z" fill="currentColor"/><path d="M21,27.24a.76.76,0,0,1-.76.76H1.76A.76.76,0,0,1,1,27.24V1.76A.76.76,0,0,1,1.76,1H20.24a.76.76,0,0,1,.76.76v9.58l1-1V1.76A1.76,1.76,0,0,0,20.24,0H1.76A1.76,1.76,0,0,0,0,1.76V27.24A1.76,1.76,0,0,0,1.76,29H20.24A1.76,1.76,0,0,0,22,27.24V17.38l-1,1Z" fill="currentColor"/><path d="M6,10.5H6a.5.5,0,0,1,.5-.5h9a.5.5,0,0,1,0,1h-9a.5.5,0,0,1-.5-.5" fill="currentColor"/><path d="M6,13.5H6a.5.5,0,0,1,.5-.5h9a.5.5,0,0,1,0,1h-9a.5.5,0,0,1-.5-.5" fill="currentColor"/><path d="M6,16.5H6a.5.5,0,0,1,.5-.5h7a.5.5,0,0,1,0,1h-7a.5.5,0,0,1-.5-.5" fill="currentColor"/><path d="M6,19.5H6a.5.5,0,0,1,.5-.5h4a.5.5,0,0,1,0,1h-4a.5.5,0,0,1-.5-.5" fill="currentColor"/></svg>