<svg xmlns="http://www.w3.org/2000/svg" xmlns:xlink="http://www.w3.org/1999/xlink" viewBox="0 0 28 26"><path d="M9.48,1.5a11.32,11.32,0,0,1,4.6,1.08,1.06,1.06,0,0,0,.42.09,1,1,0,0,0,.42-.09,11.32,11.32,0,0,1,4.6-1.08,8,8,0,0,1,3.63.84,8.45,8.45,0,0,1,4.07,5.33,8.5,8.5,0,0,1-1.23,7C25.15,16,20.87,20,14.5,25.21,8.14,20,3.85,16,3,14.61A8.45,8.45,0,0,1,1.78,7.67,8.45,8.45,0,0,1,5.85,2.34,8,8,0,0,1,9.48,1.5m0-1a9,9,0,0,0-4.07,1,9.4,9.4,0,0,0-4.59,6,9.42,9.42,0,0,0,1.34,7.75c1.29,2.13,8.7,8.34,11.9,11l.45.35.43-.35c3.2-2.64,10.61-8.86,11.9-11a9.42,9.42,0,0,0,1.35-7.75,9.44,9.44,0,0,0-4.6-6A9,9,0,0,0,19.52.5a12.37,12.37,0,0,0-5,1.17A12.37,12.37,0,0,0,9.48.5" transform="translate(-0.5 -0.5)" fill="currentColor"/></svg>