<svg xmlns="http://www.w3.org/2000/svg" xmlns:xlink="http://www.w3.org/1999/xlink" viewBox="0 0 25 25"><path d="M23.24,1a.76.76,0,0,1,.76.76V23.24a.76.76,0,0,1-.76.76H1.76A.76.76,0,0,1,1,23.24V1.76A.76.76,0,0,1,1.76,1H23.24m0-1H1.76A1.76,1.76,0,0,0,0,1.76V23.24A1.76,1.76,0,0,0,1.76,25H23.24A1.76,1.76,0,0,0,25,23.24V1.76A1.76,1.76,0,0,0,23.24,0" fill="currentColor"/><path d="M12.5,20h0a.5.5,0,0,1-.5-.5V5.5a.5.5,0,0,1,1,0v14a.5.5,0,0,1-.5.5" fill="currentColor"/><path d="M5,12.5H5a.5.5,0,0,1,.5-.5h14a.5.5,0,0,1,0,1H5.5a.5.5,0,0,1-.5-.5" fill="currentColor"/></svg>