<svg xmlns="http://www.w3.org/2000/svg" xmlns:xlink="http://www.w3.org/1999/xlink" viewBox="0 0 27 29"><path d="M7,9.75V19L5.34,17.57,1.55,14.35,7,9.75M8,7.6,0,14.35l8,6.79Z" fill="currentColor"/><path d="M7,14.5H7a.5.5,0,0,1,.5-.5h7a.5.5,0,0,1,0,1h-7a.5.5,0,0,1-.5-.5" fill="currentColor"/><path d="M25.24,0H8.76A1.76,1.76,0,0,0,7,1.76V3H8V1.76A.76.76,0,0,1,8.76,1H25.24a.76.76,0,0,1,.76.76V27.24a.76.76,0,0,1-.76.76H8.76A.76.76,0,0,1,8,27.24V26H7v1.24A1.76,1.76,0,0,0,8.76,29H25.24A1.76,1.76,0,0,0,27,27.24V1.76A1.76,1.76,0,0,0,25.24,0" fill="currentColor"/><path d="M21.24,0H20V1h1.24a.76.76,0,0,1,.76.76V27.24a.76.76,0,0,1-.76.76H20v1h1.24A1.76,1.76,0,0,0,23,27.24V1.76A1.76,1.76,0,0,0,21.24,0" fill="currentColor"/></svg>