<svg xmlns="http://www.w3.org/2000/svg" xmlns:xlink="http://www.w3.org/1999/xlink" viewBox="0 0 24 26"><path d="M5,9a4,4,0,1,1-4,4A4,4,0,0,1,5,9M5,8a5,5,0,1,0,5,5A5,5,0,0,0,5,8" fill="currentColor"/><path d="M19,1a4,4,0,1,1-4,4,4,4,0,0,1,4-4m0-1a5,5,0,1,0,5,5,5,5,0,0,0-5-5" fill="currentColor"/><path d="M19,17a4,4,0,1,1-4,4,4,4,0,0,1,4-4m0-1a5,5,0,1,0,5,5,5,5,0,0,0-5-5" fill="currentColor"/><line x1="14.95" y1="7.31" x2="8.92" y2="10.76" fill="none" stroke="currentColor" stroke-linecap="round" stroke-linejoin="round"/><line x1="8.96" y1="15.26" x2="15.02" y2="18.73" fill="none" stroke="currentColor" stroke-linecap="round" stroke-linejoin="round"/></svg>