<svg xmlns="http://www.w3.org/2000/svg" xmlns:xlink="http://www.w3.org/1999/xlink" viewBox="0 0 21 21"><path d="M10.5,1A9.5,9.5,0,1,1,1,10.5,9.51,9.51,0,0,1,10.5,1m0-1A10.5,10.5,0,1,0,21,10.5,10.5,10.5,0,0,0,10.5,0" fill="currentColor"/><path d="M9,12.76v-2.5h.79a2.14,2.14,0,0,0,.56-.11.92.92,0,0,0,.46-.31l.13-.18A.42.42,0,0,0,11,9.47a.21.21,0,0,0,0-.12s0-.08,0-.11a1,1,0,0,0-.3-.73A.94.94,0,0,0,10,8.19H9.87l-.06,0a.69.69,0,0,0-.46.31,1.33,1.33,0,0,0-.19.53H7.1V9A2.26,2.26,0,0,1,8,7.12a3.44,3.44,0,0,1,1.93-.73h.55a3.68,3.68,0,0,1,.8.17,2.49,2.49,0,0,1,.71.36,2.26,2.26,0,0,1,.69.81,3.36,3.36,0,0,1,.35,1c0,.06,0,.13,0,.2s0,.14,0,.22a2.52,2.52,0,0,1-.48,1.49,1.87,1.87,0,0,1-1.47.75v1.31Zm1.84,3a1.23,1.23,0,0,1-.88.39,1.12,1.12,0,0,1-.91-.38,1.34,1.34,0,0,1-.33-.84v-.13a1.4,1.4,0,0,1,.35-.82,1.06,1.06,0,0,1,.89-.38,1.15,1.15,0,0,1,.85.38,1.33,1.33,0,0,1,.42.82v.09A1.2,1.2,0,0,1,10.84,15.71Z" fill="currentColor"/></svg>