<svg xmlns="http://www.w3.org/2000/svg" xmlns:xlink="http://www.w3.org/1999/xlink" viewBox="0 0 33.27 19.95"><path d="M18.71,1c.42.25.37,1.87.32,3.43C19,5.1,19,5.85,19,6.65,19,7.71,19,11,21.09,11c1.38,0,1.85-1.09,2.41-2.36.19-.44.41-.94.7-1.52a38.64,38.64,0,0,1,3.18-5.31,3.29,3.29,0,0,1,.86-.08,13.88,13.88,0,0,1,3.92.66,22.22,22.22,0,0,1-3,4.79c-1.85,2.46-2.43,3.34-2.29,4.29A2.42,2.42,0,0,0,28.07,13a10.67,10.67,0,0,1,1.17,1c2.79,2.78,3,3.55,3,3.72a1.19,1.19,0,0,1-1.21,1.22H27.73c-.69,0-.69,0-1.5-.82-2.05-2.05-3.73-3.61-5.14-3.61a3.39,3.39,0,0,0-3.22,3.21,3,3,0,0,1-.15,1.22h-1c-1.89-.08-4.23-.18-7.92-4C4.87,10.85,3.33,7.72,1.1,2.16h0l1.63,0,1.7,0h.84s.16.1.54.66c.65,1,1.3,2,1.93,3.08C9.88,9.31,10.94,11,12.23,11a1.46,1.46,0,0,0,1-.45c1-1,1.07-3.81,1.07-5V3.32a2.08,2.08,0,0,0-.89-1.77A5,5,0,0,1,15.55,1h3.16m.16-1H15.55a6.43,6.43,0,0,0-3.32,1.11s-1.38,1.07-1.11,1.1h.05c.16,0,.46-.05.79-.05.63,0,1.38.17,1.38,1.15V5.54s0,4.43-1.11,4.43S8.91,5.54,6.69,2.21c-.67-1-1-1.11-1.57-1.11H4.48c-1.19,0-2.22,0-3.33,0S-.1,1.86.05,2.21c2.21,5.54,3.8,9,8,13.4,3.86,4,6.44,4.23,8.6,4.33h1.11c1.1,0,1.1-1.6,1.1-2.22a2.38,2.38,0,0,1,2.22-2.21c1.11,0,3,1.89,4.43,3.32,1.11,1.11,1.11,1.11,2.21,1.11h3.33a2.25,2.25,0,0,0,2.21-2.22c0-.69-.76-1.87-3.32-4.43-2.22-2.22-3.35-1.07,0-5.54C32,5,33.48,2.57,33.22,1.86c-.17-.48-3.07-1.16-5-1.16-.79,0-1.42.11-1.61.41A40.31,40.31,0,0,0,23.3,6.65C22.2,8.86,22.08,10,21.09,10S20,7.82,20,6.65C20,3,20.51.39,18.87,0" fill="currentColor"/></svg>