<svg xmlns="http://www.w3.org/2000/svg" xmlns:xlink="http://www.w3.org/1999/xlink" viewBox="0 0 19.7 19.78"><path d="M16.5,3.2A9.2,9.2,0,0,0,2,14.3L.71,19.07l4.88-1.28A9.11,9.11,0,0,0,10,18.91h0a9.21,9.21,0,0,0,9.2-9.2A9.09,9.09,0,0,0,16.5,3.2Zm-1.4,9.88a2.59,2.59,0,0,1-1.71,1.2,3.46,3.46,0,0,1-1.6-.1c-.36-.12-.84-.27-1.44-.53A11.36,11.36,0,0,1,6,9.82,5,5,0,0,1,5,7.2a2.83,2.83,0,0,1,.88-2.11.93.93,0,0,1,.68-.32H7c.15,0,.36-.06.57.43S8.32,7,8.39,7.1a.48.48,0,0,1,0,.44A1.83,1.83,0,0,1,8.15,8c-.12.15-.26.33-.38.45a.37.37,0,0,0-.11.51,7.62,7.62,0,0,0,1.41,1.76,7.18,7.18,0,0,0,2,1.26c.25.12.4.1.55-.07s.63-.74.8-1,.34-.21.57-.13,1.48.7,1.73.83a1.3,1.3,0,0,1,.49.29A2.19,2.19,0,0,1,15.1,13.08Z" fill="none" stroke="currentColor" stroke-miterlimit="10"/></svg>