<svg xmlns="http://www.w3.org/2000/svg" xmlns:xlink="http://www.w3.org/1999/xlink" viewBox="0 0 26.56 18.67"><path d="M13,1.5c2.45,0,4.85,0,6.87.08a35.33,35.33,0,0,1,3.79.25,2,2,0,0,1,1.74,1.35,8.38,8.38,0,0,1,.51,2.46A52.66,52.66,0,0,1,26,12.58a14.35,14.35,0,0,1-.42,3.34,2.29,2.29,0,0,1-1.82,1.82,8.68,8.68,0,0,1-1.46.16L14,18.17l-2.59-.08c-2-.06-4-.12-6-.2a9,9,0,0,1-1.64-.23,2.07,2.07,0,0,1-1.58-1.41,9.87,9.87,0,0,1-.46-2.48,51.48,51.48,0,0,1-.09-6.43V7.11a13.87,13.87,0,0,1,.37-3.22,2.71,2.71,0,0,1,.72-1.45,2.35,2.35,0,0,1,1.52-.66l1.23-.07c1.79-.09,3.63-.18,5.44-.2H13M10.06,14.87l1.46-.76,7.15-3.7,1.7-.89-1.7-.89L14.48,6.44l-3-1.54-1.46-.76V14.87M13,.5H10.84C8.6.53,6.37.67,4.13.78A3.34,3.34,0,0,0,2,1.69,3.81,3.81,0,0,0,1,3.63,16.2,16.2,0,0,0,.56,7.3a53.19,53.19,0,0,0,.09,6.56,11.07,11.07,0,0,0,.52,2.73,3,3,0,0,0,2.29,2,10.34,10.34,0,0,0,1.83.26c2.84.11,5.68.18,8.66.28l8.38-.27A11.29,11.29,0,0,0,24,18.72a3.3,3.3,0,0,0,2.57-2.53A15.24,15.24,0,0,0,27,12.63a52.12,52.12,0,0,0-.1-7.07,8.87,8.87,0,0,0-.57-2.75,3,3,0,0,0-2.54-2,33.9,33.9,0,0,0-3.9-.26C17.59.54,15.29.5,13,.5M11.06,13.23V5.79l7.15,3.73-7.15,3.71" transform="translate(-0.5 -0.5)" fill="currentColor"/></svg>