<svg xmlns="http://www.w3.org/2000/svg" xmlns:xlink="http://www.w3.org/1999/xlink" viewBox="0 0 224.29 70.18"><path d="M33.35,22.51a12,12,0,0,1-2.46,4.43c-1,1.16-2.64,1.43-5,1.43a9.83,9.83,0,0,1-4.21-.57c-.85-.45-1.05-1.31-1.05-3.73V6.79c0-3.88.42-4.13,4-4.37V1.12H12.31v1.3c3.76.24,4.06.52,4.06,4.37V24.21c0,3.89-.4,4.19-4.28,4.46v1.25H33c.46-1.34,1.4-5.61,1.7-7.14Zm25.58,0a15.09,15.09,0,0,1-2.3,4.29c-1,1.16-2.38,1.46-5.69,1.46-2,0-3.74,0-4.62-.52s-1.09-1.55-1.09-3.65v-8.2h4.14c4,0,4.3.25,4.93,3.51h1.36V10.74H54.3c-.57,3-.87,3.36-4.93,3.36H45.23V4.18c0-1.33.09-1.45,1.58-1.45h3.35c3.11,0,4.35.3,5,1.26a12.65,12.65,0,0,1,1.48,3.85l1.39-.18c-.18-2.49-.36-5.4-.42-6.54H37.1v1.3c3.52.3,3.91.43,3.91,4.48V24.26c0,3.65-.39,4.07-4.48,4.37v1.29H58.75c.4-1.4,1.28-5.5,1.58-7.18Zm28.4-.73a13.61,13.61,0,0,1-2.54,4.73c-1.34,1.36-3.31,1.69-8.83,1.69a72.89,72.89,0,0,1-7.3-.27c6.27-9,12.55-17.5,18.91-26.19l-.36-.67H68.47c-1.35,0-1.84-.05-2.42-1.12H65c-.06,2-.3,5.39-.54,8.39l1.37.06a12.8,12.8,0,0,1,1.61-4c.78-1.22,1.49-1.64,6.48-1.64h7.92c-6.46,9-12.83,17.6-19.26,26.37l.4.7H87c.52-1.82,1.31-6.06,1.68-7.82Zm28,0a13.78,13.78,0,0,1-2.54,4.73c-1.34,1.36-3.31,1.69-8.83,1.69a72.89,72.89,0,0,1-7.3-.27c6.27-9,12.55-17.5,18.91-26.19l-.36-.67H96.45C95.09,1.12,94.61,1.07,94,0h-1.1c-.06,2-.3,5.39-.55,8.39l1.38.06a12.84,12.84,0,0,1,1.6-4c.79-1.22,1.49-1.64,6.49-1.64h7.92c-6.46,9-12.83,17.6-19.26,26.37l.39.7H115c.52-1.82,1.3-6.06,1.68-7.82Zm33.39,8.08V28.63c-2.94-.3-3.58-.79-5-4.69-3-7.76-5.91-15.65-8.81-23.5l-1.58.39-9.5,23.11c-1.63,3.93-2.26,4.23-5.19,4.69v1.28h10V28.63c-3.43-.36-3.79-.88-2.82-3.57.57-1.76,1.18-3.48,1.94-5.5h9.73c1,2.53,1.78,4.75,2.42,6.49s.21,2.19-2.6,2.58v1.28ZM136.75,17.57h-8.31c1.37-3.57,2.8-7.37,4.24-11h.1Z" fill-rule="evenodd" fill="#fff"/><path d="M63.36,40.94v1.37c3.49.27,3.88.45,3.88,4.27V64.14c0,3.78-.39,4-4.27,4.33v1.28H74.22c5.63,0,10.28-1.16,13.78-3.68a14,14,0,0,0,5.69-11.8,13,13,0,0,0-3.87-9.54c-2.83-2.6-7.27-3.79-13.07-3.79Zm8.1,4.73c0-1.73.15-2.28.57-2.58a7.7,7.7,0,0,1,3.65-.6,14.38,14.38,0,0,1,8.09,2.06c3.35,2.09,5.14,5.84,5.14,10.41,0,7-4.07,13.11-12.55,13.11-3.36,0-4.9-.82-4.9-4.33Zm47.62,16.71a15.08,15.08,0,0,1-2.31,4.29c-1,1.16-2.38,1.46-5.68,1.46-2.06,0-3.75,0-4.63-.52s-1.08-1.55-1.08-3.65V55.77h4.14c4,0,4.29.25,4.92,3.5h1.37V50.56h-1.37c-.57,3-.87,3.37-4.92,3.37h-4.14V44c0-1.33.08-1.45,1.57-1.45h3.35c3.12,0,4.36.3,5,1.27a12.19,12.19,0,0,1,1.48,3.85l1.4-.19c-.19-2.48-.36-5.4-.43-6.54H97.25v1.3c3.51.3,3.91.43,3.91,4.48V64.09c0,3.64-.4,4.06-4.48,4.36v1.3h22.21c.4-1.41,1.28-5.51,1.58-7.19Zm35.55-21.44H143.82v1.3c3.23.15,4.29.73,4.5,2.82a70,70,0,0,1,.31,7.4V62.78h-.13L129.24,40.94h-7v1.3c2.12.15,3.1.51,4,1.61s1,1.3,1,4.54v9.52a55.4,55.4,0,0,1-.37,7.57c-.21,2.22-1.36,2.79-4,3v1.29h10.83V68.45c-3.12-.24-4.14-.78-4.35-3.09a72,72,0,0,1-.31-7.45l0-10.82h.07l19.87,23.09h1.45V52.46a68.25,68.25,0,0,1,.28-7.56c.21-2,1.3-2.54,3.82-2.66Zm27.19,20.71a13.6,13.6,0,0,1-2.55,4.73c-1.33,1.36-3.31,1.69-8.82,1.69a70.18,70.18,0,0,1-7.31-.27c6.27-9,12.55-17.5,18.92-26.19l-.36-.67H163c-1.36,0-1.84,0-2.42-1.12h-1.1c-.06,2-.3,5.39-.55,8.39l1.38.07a12.82,12.82,0,0,1,1.6-4c.79-1.22,1.49-1.64,6.49-1.64h7.91c-6.45,9-12.83,17.6-19.25,26.37l.39.71h24.07c.52-1.83,1.3-6.07,1.67-7.83Zm33.39,8.09V68.45c-2.94-.3-3.58-.78-5-4.68-3-7.76-5.91-15.66-8.82-23.51l-1.57.39-9.51,23.12C188.66,67.7,188,68,185.1,68.45v1.29h10V68.45c-3.42-.36-3.78-.88-2.81-3.57.57-1.76,1.18-3.47,1.93-5.5h9.74c1,2.53,1.78,4.75,2.42,6.5s.21,2.18-2.61,2.57v1.29Zm-12-12.35H195c1.37-3.57,2.79-7.37,4.24-11h.09Z" fill-rule="evenodd" fill="#fff"/><rect x="153.58" y="13.57" width="70.71" height="2.83" fill="#fff"/><rect y="54.69" width="55.36" height="2.83" fill="#fff"/></svg>