<svg width="0" height="0" class="hidden">
  <symbol xmlns="http://www.w3.org/2000/svg" xmlns:xlink="http://www.w3.org/1999/xlink" viewBox="0 0 12.14 23.27" id="ic_arr_hor">
    <path d="M12,11.28.85.15a.48.48,0,0,0-.7,0,.48.48,0,0,0,0,.7L10.93,11.64.15,22.42a.48.48,0,0,0,0,.7.49.49,0,0,0,.35.15.47.47,0,0,0,.35-.15L12,12a.51.51,0,0,0,0-.71" fill="currentColor"></path>
  </symbol>
  <symbol xmlns="http://www.w3.org/2000/svg" xmlns:xlink="http://www.w3.org/1999/xlink" viewBox="0 0 20.24 14.79" id="ic_arrow_hor">
    <path d="M20.09,7,13.2.15a.5.5,0,0,0-.71,0,.48.48,0,0,0,0,.7L19,7.39l-6.54,6.54a.51.51,0,0,0,0,.71.5.5,0,0,0,.35.15.51.51,0,0,0,.36-.15l6.89-6.89a.51.51,0,0,0,0-.71" fill="currentColor"></path>
    <path d="M19.25,7.89H.5a.5.5,0,0,1-.5-.5.5.5,0,0,1,.5-.5H19.25a.5.5,0,0,1,.5.5.5.5,0,0,1-.5.5" fill="currentColor"></path>
  </symbol>
  <symbol xmlns="http://www.w3.org/2000/svg" xmlns:xlink="http://www.w3.org/1999/xlink" viewBox="0 0 28 26" id="ic_cart">
    <path d="M26.24,7.2h-4a8.28,8.28,0,0,0-16.42,0h-4A1.76,1.76,0,0,0,0,9V24.24A1.76,1.76,0,0,0,1.76,26H26.24A1.76,1.76,0,0,0,28,24.24V9A1.76,1.76,0,0,0,26.24,7.2M14,1a7.3,7.3,0,0,1,7.2,6.2H6.8A7.3,7.3,0,0,1,14,1M27,24.24a.76.76,0,0,1-.76.76H1.76A.76.76,0,0,1,1,24.24V9a.76.76,0,0,1,.76-.76h4a.28.28,0,0,0,0,.09v3.35h1V8.29a.28.28,0,0,1,0-.09H21.29v3.44h1V8.2h3.95A.76.76,0,0,1,27,9Z" fill="currentColor"></path>
  </symbol>
  <symbol xmlns="http://www.w3.org/2000/svg" xmlns:xlink="http://www.w3.org/1999/xlink" viewBox="0 0 21.75 20.2" id="ic_cart_a">
    <path d="M20,5.59H17.25a6.43,6.43,0,0,0-12.75,0H1.76A1.76,1.76,0,0,0,0,7.36V18.44A1.76,1.76,0,0,0,1.76,20.2H20a1.76,1.76,0,0,0,1.76-1.76V7.36A1.76,1.76,0,0,0,20,5.59M10.88,1a5.43,5.43,0,0,1,5.36,4.59H5.51A5.45,5.45,0,0,1,10.88,1" fill="currentColor"></path>
  </symbol>
  <symbol xmlns="http://www.w3.org/2000/svg" xmlns:xlink="http://www.w3.org/1999/xlink" viewBox="0 0 11.96 7.89" id="ic_check">
    <path d="M4.92,7.75,11.81.85a.48.48,0,0,0,0-.7.5.5,0,0,0-.71,0L4.56,6.69.85,3a.48.48,0,0,0-.7,0,.48.48,0,0,0,0,.7L4.21,7.75a.51.51,0,0,0,.71,0" fill="currentColor"></path>
  </symbol>
  <symbol xmlns="http://www.w3.org/2000/svg" xmlns:xlink="http://www.w3.org/1999/xlink" viewBox="0 0 12.12 12.12" id="ic_close">
    <line x1="11.62" y1="0.5" x2="0.5" y2="11.62" fill="none" stroke="currentColor" stroke-linecap="round" stroke-linejoin="round"></line>
    <line x1="11.62" y1="11.62" x2="0.5" y2="0.5" fill="none" stroke="currentColor" stroke-linecap="round" stroke-linejoin="round"></line>
  </symbol>
  <symbol xmlns="http://www.w3.org/2000/svg" xmlns:xlink="http://www.w3.org/1999/xlink" viewBox="0 0 29 29" id="ic_delete">
    <path d="M14.5,1A13.5,13.5,0,1,1,1,14.5,13.52,13.52,0,0,1,14.5,1m0-1A14.5,14.5,0,1,0,29,14.5,14.5,14.5,0,0,0,14.5,0" fill="currentColor"></path>
    <line x1="20.06" y1="8.94" x2="8.94" y2="20.06" fill="none" stroke="currentColor" stroke-linecap="round" stroke-linejoin="round"></line>
    <line x1="20.06" y1="20.06" x2="8.94" y2="8.94" fill="none" stroke="currentColor" stroke-linecap="round" stroke-linejoin="round"></line>
  </symbol>
  <symbol xmlns="http://www.w3.org/2000/svg" xmlns:xlink="http://www.w3.org/1999/xlink" viewBox="0 0 23.4 17.78" id="ic_email">
    <path d="M19.82,1A2.59,2.59,0,0,1,22.4,3.58V14.2a2.58,2.58,0,0,1-2.58,2.58H3.58A2.58,2.58,0,0,1,1,14.2V3.58A2.59,2.59,0,0,1,3.58,1H19.82m0-1H3.58A3.58,3.58,0,0,0,0,3.58V14.2a3.58,3.58,0,0,0,3.58,3.58H19.82A3.58,3.58,0,0,0,23.4,14.2V3.58A3.58,3.58,0,0,0,19.82,0"></path>
    <line x1="1.37" y1="1.51" x2="11.7" y2="10.03" fill="none" stroke="currentColor" stroke-linecap="round" stroke-linejoin="round"></line>
    <line x1="22.03" y1="1.51" x2="11.7" y2="10.03" fill="none" stroke="currentColor" stroke-linecap="round" stroke-linejoin="round"></line>
    <line x1="3.85" y1="13.21" x2="8.25" y2="13.21" fill="none" stroke="currentColor" stroke-linecap="round" stroke-linejoin="round"></line>
  </symbol>
  <symbol xmlns="http://www.w3.org/2000/svg" xmlns:xlink="http://www.w3.org/1999/xlink" viewBox="0 0 21.75 20.2" id="ic_favorite_a">
    <path d="M21.51,5.38A7.29,7.29,0,0,0,17.94.74a8.14,8.14,0,0,0-7.06.17A8.16,8.16,0,0,0,3.81.74,7.32,7.32,0,0,0,.24,5.38a7.3,7.3,0,0,0,1.05,6c1,1.66,6.76,6.49,9.25,8.53l.34.28.34-.28c2.48-2,8.24-6.87,9.25-8.53a7.34,7.34,0,0,0,1-6" fill="currentColor"></path>
  </symbol>
  <symbol xmlns="http://www.w3.org/2000/svg" viewBox="0 0 26 29" id="ic_filter">
    <rect y="25" width="26" height="1" fill="currentColor"></rect>
    <rect y="14" width="26" height="1" fill="currentColor"></rect>
    <rect y="3" width="26" height="1" fill="currentColor"></rect>
    <rect x="3" width="1" height="7" fill="currentColor"></rect>
    <rect x="3" y="22" width="1" height="7" fill="currentColor"></rect>
    <rect x="22" y="11" width="1" height="7" fill="currentColor"></rect>
  </symbol>
  <symbol xmlns="http://www.w3.org/2000/svg" xmlns:xlink="http://www.w3.org/1999/xlink" viewBox="0 0 29 29" id="ic_minus">
    <path d="M14.5,1A13.5,13.5,0,1,1,1,14.5,13.52,13.52,0,0,1,14.5,1m0-1A14.5,14.5,0,1,0,29,14.5,14.5,14.5,0,0,0,14.5,0" fill="currentColor"></path>
    <path d="M7,14.5H7a.5.5,0,0,1,.5-.5h14a.5.5,0,0,1,0,1H7.5a.5.5,0,0,1-.5-.5" fill="currentColor"></path>
  </symbol>
  <symbol xmlns="http://www.w3.org/2000/svg" xmlns:xlink="http://www.w3.org/1999/xlink" viewBox="0 0 21 21" id="ic_notice">
    <path d="M10.5,1A9.5,9.5,0,1,1,1,10.5,9.51,9.51,0,0,1,10.5,1m0-1A10.5,10.5,0,1,0,21,10.5,10.5,10.5,0,0,0,10.5,0" fill="currentColor"></path>
    <path d="M10.5,13h0a.5.5,0,0,1-.5-.5v-8a.5.5,0,0,1,1,0v8a.5.5,0,0,1-.5.5" fill="currentColor"></path>
    <path d="M10.5,17h0a.5.5,0,0,1-.5-.5v-1a.5.5,0,0,1,1,0v1a.5.5,0,0,1-.5.5" fill="currentColor"></path>
  </symbol>
  <symbol xmlns="http://www.w3.org/2000/svg" xmlns:xlink="http://www.w3.org/1999/xlink" viewBox="0 0 29 29" id="ic_plus">
    <path d="M14.5,1A13.5,13.5,0,1,1,1,14.5,13.52,13.52,0,0,1,14.5,1m0-1A14.5,14.5,0,1,0,29,14.5,14.5,14.5,0,0,0,14.5,0" fill="currentColor"></path>
    <path d="M14.5,22h0a.5.5,0,0,1-.5-.5V7.5a.5.5,0,0,1,1,0v14a.5.5,0,0,1-.5.5" fill="currentColor"></path>
    <path d="M7,14.5H7a.5.5,0,0,1,.5-.5h14a.5.5,0,0,1,0,1H7.5a.5.5,0,0,1-.5-.5" fill="currentColor"></path>
  </symbol>
  <symbol xmlns="http://www.w3.org/2000/svg" xmlns:xlink="http://www.w3.org/1999/xlink" viewBox="0 0 25.01 25.01" id="ic_search">
    <path d="M24.51,10.44A9.95,9.95,0,1,1,14.56.5,10,10,0,0,1,24.51,10.44Z" fill="none" stroke="currentColor" stroke-linecap="round" stroke-linejoin="round"></path>
    <line x1="7.32" y1="17.69" x2="0.5" y2="24.51" fill="none" stroke="currentColor" stroke-linecap="round" stroke-linejoin="round"></line>
  </symbol>
  <symbol xmlns="http://www.w3.org/2000/svg" xmlns:xlink="http://www.w3.org/1999/xlink" viewBox="0 0 23.52 19.88" id="ic_telegram">
    <path d="M23,2.22l-3.4,16c-.25,1.13-.92,1.42-1.87.88L12.5,15.31,10,17.71a1.27,1.27,0,0,1-1,.51L9.34,13l9.59-8.68c.42-.37-.09-.57-.65-.2L6.42,11.54,1.31,9.94C.2,9.59.18,8.83,1.54,8.3l20-7.7C22.44.25,23.25.81,23,2.22Z" fill="none" stroke="currentColor" stroke-miterlimit="10"></path>
  </symbol>
  <symbol xmlns="http://www.w3.org/2000/svg" xmlns:xlink="http://www.w3.org/1999/xlink" viewBox="0 0 24.07 26" id="ic_user">
    <path d="M15.13,13.26a7,7,0,1,0-6.19,0A11.34,11.34,0,0,0,0,24.31V26H1V24.31A10.32,10.32,0,0,1,11.31,14h1.45A10.32,10.32,0,0,1,23.07,24.31V26h1V24.31a11.34,11.34,0,0,0-8.94-11M6,7a6,6,0,1,1,6,6A6,6,0,0,1,6,7" fill="currentColor"></path>
  </symbol>
  <symbol xmlns="http://www.w3.org/2000/svg" xmlns:xlink="http://www.w3.org/1999/xlink" viewBox="0 0 34.58 36" id="ic_video_play">
    <path d="M1,1.65,13.84,8.36l18.58,9.7L1,34.36V1.65M0,0V36c11.53-6,22.94-11.89,34.58-17.94L0,0" fill="currentColor"></path>
  </symbol>
  <symbol xmlns="http://www.w3.org/2000/svg" xmlns:xlink="http://www.w3.org/1999/xlink" viewBox="0 0 19.7 19.78" id="ic_whatsapp2">
    <path d="M16.5,3.2A9.2,9.2,0,0,0,2,14.3L.71,19.07l4.88-1.28A9.11,9.11,0,0,0,10,18.91h0a9.21,9.21,0,0,0,9.2-9.2A9.09,9.09,0,0,0,16.5,3.2Zm-1.4,9.88a2.59,2.59,0,0,1-1.71,1.2,3.46,3.46,0,0,1-1.6-.1c-.36-.12-.84-.27-1.44-.53A11.36,11.36,0,0,1,6,9.82,5,5,0,0,1,5,7.2a2.83,2.83,0,0,1,.88-2.11.93.93,0,0,1,.68-.32H7c.15,0,.36-.06.57.43S8.32,7,8.39,7.1a.48.48,0,0,1,0,.44A1.83,1.83,0,0,1,8.15,8c-.12.15-.26.33-.38.45a.37.37,0,0,0-.11.51,7.62,7.62,0,0,0,1.41,1.76,7.18,7.18,0,0,0,2,1.26c.25.12.4.1.55-.07s.63-.74.8-1,.34-.21.57-.13,1.48.7,1.73.83a1.3,1.3,0,0,1,.49.29A2.19,2.19,0,0,1,15.1,13.08Z" fill="none" stroke="currentColor" stroke-miterlimit="10"></path>
  </symbol>
  <symbol xmlns="http://www.w3.org/2000/svg" xmlns:xlink="http://www.w3.org/1999/xlink" viewBox="0 0 24.98 29" id="ic_edit">
    <path d="M6,7.5H6A.5.5,0,0,1,6.5,7h9a.5.5,0,0,1,0,1h-9A.5.5,0,0,1,6,7.5" fill="currentColor"></path>
    <path d="M22.88,12.29l.69.69-10.1,10.1-.86.11.15-.78Zm0-1.41-11,11-.48,2.44L13.94,24,25,13Z" fill="currentColor"></path>
    <path d="M21,27.24a.76.76,0,0,1-.76.76H1.76A.76.76,0,0,1,1,27.24V1.76A.76.76,0,0,1,1.76,1H20.24a.76.76,0,0,1,.76.76v9.58l1-1V1.76A1.76,1.76,0,0,0,20.24,0H1.76A1.76,1.76,0,0,0,0,1.76V27.24A1.76,1.76,0,0,0,1.76,29H20.24A1.76,1.76,0,0,0,22,27.24V17.38l-1,1Z" fill="currentColor"></path>
    <path d="M6,10.5H6a.5.5,0,0,1,.5-.5h9a.5.5,0,0,1,0,1h-9a.5.5,0,0,1-.5-.5" fill="currentColor"></path>
    <path d="M6,13.5H6a.5.5,0,0,1,.5-.5h9a.5.5,0,0,1,0,1h-9a.5.5,0,0,1-.5-.5" fill="currentColor"></path>
    <path d="M6,16.5H6a.5.5,0,0,1,.5-.5h7a.5.5,0,0,1,0,1h-7a.5.5,0,0,1-.5-.5" fill="currentColor"></path>
    <path d="M6,19.5H6a.5.5,0,0,1,.5-.5h4a.5.5,0,0,1,0,1h-4a.5.5,0,0,1-.5-.5" fill="currentColor"></path>
  </symbol>
  <symbol xmlns="http://www.w3.org/2000/svg" xmlns:xlink="http://www.w3.org/1999/xlink" viewBox="0 0 28 26" id="ic_favorite">
    <path d="M9.48,1.5a11.32,11.32,0,0,1,4.6,1.08,1.06,1.06,0,0,0,.42.09,1,1,0,0,0,.42-.09,11.32,11.32,0,0,1,4.6-1.08,8,8,0,0,1,3.63.84,8.45,8.45,0,0,1,4.07,5.33,8.5,8.5,0,0,1-1.23,7C25.15,16,20.87,20,14.5,25.21,8.14,20,3.85,16,3,14.61A8.45,8.45,0,0,1,1.78,7.67,8.45,8.45,0,0,1,5.85,2.34,8,8,0,0,1,9.48,1.5m0-1a9,9,0,0,0-4.07,1,9.4,9.4,0,0,0-4.59,6,9.42,9.42,0,0,0,1.34,7.75c1.29,2.13,8.7,8.34,11.9,11l.45.35.43-.35c3.2-2.64,10.61-8.86,11.9-11a9.42,9.42,0,0,0,1.35-7.75,9.44,9.44,0,0,0-4.6-6A9,9,0,0,0,19.52.5a12.37,12.37,0,0,0-5,1.17A12.37,12.37,0,0,0,9.48.5" transform="translate(-0.5 -0.5)" fill="currentColor"></path>
  </symbol>
  <symbol xmlns="http://www.w3.org/2000/svg" xmlns:xlink="http://www.w3.org/1999/xlink" viewBox="0 0 25 25" id="ic_file">
    <path d="M23.24,1a.76.76,0,0,1,.76.76V23.24a.76.76,0,0,1-.76.76H1.76A.76.76,0,0,1,1,23.24V1.76A.76.76,0,0,1,1.76,1H23.24m0-1H1.76A1.76,1.76,0,0,0,0,1.76V23.24A1.76,1.76,0,0,0,1.76,25H23.24A1.76,1.76,0,0,0,25,23.24V1.76A1.76,1.76,0,0,0,23.24,0" fill="currentColor"></path>
    <path d="M12.5,20h0a.5.5,0,0,1-.5-.5V5.5a.5.5,0,0,1,1,0v14a.5.5,0,0,1-.5.5" fill="currentColor"></path>
    <path d="M5,12.5H5a.5.5,0,0,1,.5-.5h14a.5.5,0,0,1,0,1H5.5a.5.5,0,0,1-.5-.5" fill="currentColor"></path>
  </symbol>
  <symbol xmlns="http://www.w3.org/2000/svg" xmlns:xlink="http://www.w3.org/1999/xlink" viewBox="0 0 27 29" id="ic_logout">
    <path d="M7,9.75V19L5.34,17.57,1.55,14.35,7,9.75M8,7.6,0,14.35l8,6.79Z" fill="currentColor"></path>
    <path d="M7,14.5H7a.5.5,0,0,1,.5-.5h7a.5.5,0,0,1,0,1h-7a.5.5,0,0,1-.5-.5" fill="currentColor"></path>
    <path d="M25.24,0H8.76A1.76,1.76,0,0,0,7,1.76V3H8V1.76A.76.76,0,0,1,8.76,1H25.24a.76.76,0,0,1,.76.76V27.24a.76.76,0,0,1-.76.76H8.76A.76.76,0,0,1,8,27.24V26H7v1.24A1.76,1.76,0,0,0,8.76,29H25.24A1.76,1.76,0,0,0,27,27.24V1.76A1.76,1.76,0,0,0,25.24,0" fill="currentColor"></path>
    <path d="M21.24,0H20V1h1.24a.76.76,0,0,1,.76.76V27.24a.76.76,0,0,1-.76.76H20v1h1.24A1.76,1.76,0,0,0,23,27.24V1.76A1.76,1.76,0,0,0,21.24,0" fill="currentColor"></path>
  </symbol>
  <symbol xmlns="http://www.w3.org/2000/svg" xmlns:xlink="http://www.w3.org/1999/xlink" viewBox="0 0 24 26" id="ic_share">
    <path d="M5,9a4,4,0,1,1-4,4A4,4,0,0,1,5,9M5,8a5,5,0,1,0,5,5A5,5,0,0,0,5,8" fill="currentColor"></path>
    <path d="M19,1a4,4,0,1,1-4,4,4,4,0,0,1,4-4m0-1a5,5,0,1,0,5,5,5,5,0,0,0-5-5" fill="currentColor"></path>
    <path d="M19,17a4,4,0,1,1-4,4,4,4,0,0,1,4-4m0-1a5,5,0,1,0,5,5,5,5,0,0,0-5-5" fill="currentColor"></path>
    <line x1="14.95" y1="7.31" x2="8.92" y2="10.76" fill="none" stroke="currentColor" stroke-linecap="round" stroke-linejoin="round"></line>
    <line x1="8.96" y1="15.26" x2="15.02" y2="18.73" fill="none" stroke="currentColor" stroke-linecap="round" stroke-linejoin="round"></line>
  </symbol>
  <symbol xmlns="http://www.w3.org/2000/svg" xmlns:xlink="http://www.w3.org/1999/xlink" viewBox="0 0 21 21" id="ic_tooltip">
    <path d="M10.5,1A9.5,9.5,0,1,1,1,10.5,9.51,9.51,0,0,1,10.5,1m0-1A10.5,10.5,0,1,0,21,10.5,10.5,10.5,0,0,0,10.5,0" fill="currentColor"></path>
    <path d="M9,12.76v-2.5h.79a2.14,2.14,0,0,0,.56-.11.92.92,0,0,0,.46-.31l.13-.18A.42.42,0,0,0,11,9.47a.21.21,0,0,0,0-.12s0-.08,0-.11a1,1,0,0,0-.3-.73A.94.94,0,0,0,10,8.19H9.87l-.06,0a.69.69,0,0,0-.46.31,1.33,1.33,0,0,0-.19.53H7.1V9A2.26,2.26,0,0,1,8,7.12a3.44,3.44,0,0,1,1.93-.73h.55a3.68,3.68,0,0,1,.8.17,2.49,2.49,0,0,1,.71.36,2.26,2.26,0,0,1,.69.81,3.36,3.36,0,0,1,.35,1c0,.06,0,.13,0,.2s0,.14,0,.22a2.52,2.52,0,0,1-.48,1.49,1.87,1.87,0,0,1-1.47.75v1.31Zm1.84,3a1.23,1.23,0,0,1-.88.39,1.12,1.12,0,0,1-.91-.38,1.34,1.34,0,0,1-.33-.84v-.13a1.4,1.4,0,0,1,.35-.82,1.06,1.06,0,0,1,.89-.38,1.15,1.15,0,0,1,.85.38,1.33,1.33,0,0,1,.42.82v.09A1.2,1.2,0,0,1,10.84,15.71Z" fill="currentColor"></path>
  </symbol>
  <symbol xmlns="http://www.w3.org/2000/svg" xmlns:xlink="http://www.w3.org/1999/xlink" viewBox="0 0 33.27 19.95" id="ic_vk">
    <path d="M18.71,1c.42.25.37,1.87.32,3.43C19,5.1,19,5.85,19,6.65,19,7.71,19,11,21.09,11c1.38,0,1.85-1.09,2.41-2.36.19-.44.41-.94.7-1.52a38.64,38.64,0,0,1,3.18-5.31,3.29,3.29,0,0,1,.86-.08,13.88,13.88,0,0,1,3.92.66,22.22,22.22,0,0,1-3,4.79c-1.85,2.46-2.43,3.34-2.29,4.29A2.42,2.42,0,0,0,28.07,13a10.67,10.67,0,0,1,1.17,1c2.79,2.78,3,3.55,3,3.72a1.19,1.19,0,0,1-1.21,1.22H27.73c-.69,0-.69,0-1.5-.82-2.05-2.05-3.73-3.61-5.14-3.61a3.39,3.39,0,0,0-3.22,3.21,3,3,0,0,1-.15,1.22h-1c-1.89-.08-4.23-.18-7.92-4C4.87,10.85,3.33,7.72,1.1,2.16h0l1.63,0,1.7,0h.84s.16.1.54.66c.65,1,1.3,2,1.93,3.08C9.88,9.31,10.94,11,12.23,11a1.46,1.46,0,0,0,1-.45c1-1,1.07-3.81,1.07-5V3.32a2.08,2.08,0,0,0-.89-1.77A5,5,0,0,1,15.55,1h3.16m.16-1H15.55a6.43,6.43,0,0,0-3.32,1.11s-1.38,1.07-1.11,1.1h.05c.16,0,.46-.05.79-.05.63,0,1.38.17,1.38,1.15V5.54s0,4.43-1.11,4.43S8.91,5.54,6.69,2.21c-.67-1-1-1.11-1.57-1.11H4.48c-1.19,0-2.22,0-3.33,0S-.1,1.86.05,2.21c2.21,5.54,3.8,9,8,13.4,3.86,4,6.44,4.23,8.6,4.33h1.11c1.1,0,1.1-1.6,1.1-2.22a2.38,2.38,0,0,1,2.22-2.21c1.11,0,3,1.89,4.43,3.32,1.11,1.11,1.11,1.11,2.21,1.11h3.33a2.25,2.25,0,0,0,2.21-2.22c0-.69-.76-1.87-3.32-4.43-2.22-2.22-3.35-1.07,0-5.54C32,5,33.48,2.57,33.22,1.86c-.17-.48-3.07-1.16-5-1.16-.79,0-1.42.11-1.61.41A40.31,40.31,0,0,0,23.3,6.65C22.2,8.86,22.08,10,21.09,10S20,7.82,20,6.65C20,3,20.51.39,18.87,0" fill="currentColor"></path>
  </symbol>
  <symbol xmlns="http://www.w3.org/2000/svg" xmlns:xlink="http://www.w3.org/1999/xlink" viewBox="0 0 19.9 20" id="ic_whatsapp">
    <path d="M17,2.91A9.8,9.8,0,0,0,10,0,9.9,9.9,0,0,0,1.41,14.86L0,20l5.25-1.38A9.91,9.91,0,0,0,10,19.83h0A9.92,9.92,0,0,0,19.9,9.92a9.77,9.77,0,0,0-2.9-7M14.84,13.45a2.52,2.52,0,0,1-1.67,1.18,3.43,3.43,0,0,1-1.56-.1A14.3,14.3,0,0,1,10.2,14,11,11,0,0,1,6,10.27,4.82,4.82,0,0,1,5,7.71a2.82,2.82,0,0,1,.86-2.07,1,1,0,0,1,.67-.31H7c.15,0,.36-.06.56.43s.7,1.71.76,1.84A.46.46,0,0,1,8.3,8a1.46,1.46,0,0,1-.25.41c-.12.15-.26.33-.37.44s-.25.25-.11.5A7.87,7.87,0,0,0,9,11.11a7.19,7.19,0,0,0,2,1.23c.25.12.39.1.54-.07s.62-.72.78-1,.33-.2.56-.12,1.44.68,1.69.81.42.18.48.28a2.08,2.08,0,0,1-.15,1.18" fill="currentColor" fill-rule="evenodd"></path>
  </symbol>
  <symbol xmlns="http://www.w3.org/2000/svg" xmlns:xlink="http://www.w3.org/1999/xlink" viewBox="0 0 26.56 18.67" id="ic_youtube">
    <path d="M13,1.5c2.45,0,4.85,0,6.87.08a35.33,35.33,0,0,1,3.79.25,2,2,0,0,1,1.74,1.35,8.38,8.38,0,0,1,.51,2.46A52.66,52.66,0,0,1,26,12.58a14.35,14.35,0,0,1-.42,3.34,2.29,2.29,0,0,1-1.82,1.82,8.68,8.68,0,0,1-1.46.16L14,18.17l-2.59-.08c-2-.06-4-.12-6-.2a9,9,0,0,1-1.64-.23,2.07,2.07,0,0,1-1.58-1.41,9.87,9.87,0,0,1-.46-2.48,51.48,51.48,0,0,1-.09-6.43V7.11a13.87,13.87,0,0,1,.37-3.22,2.71,2.71,0,0,1,.72-1.45,2.35,2.35,0,0,1,1.52-.66l1.23-.07c1.79-.09,3.63-.18,5.44-.2H13M10.06,14.87l1.46-.76,7.15-3.7,1.7-.89-1.7-.89L14.48,6.44l-3-1.54-1.46-.76V14.87M13,.5H10.84C8.6.53,6.37.67,4.13.78A3.34,3.34,0,0,0,2,1.69,3.81,3.81,0,0,0,1,3.63,16.2,16.2,0,0,0,.56,7.3a53.19,53.19,0,0,0,.09,6.56,11.07,11.07,0,0,0,.52,2.73,3,3,0,0,0,2.29,2,10.34,10.34,0,0,0,1.83.26c2.84.11,5.68.18,8.66.28l8.38-.27A11.29,11.29,0,0,0,24,18.72a3.3,3.3,0,0,0,2.57-2.53A15.24,15.24,0,0,0,27,12.63a52.12,52.12,0,0,0-.1-7.07,8.87,8.87,0,0,0-.57-2.75,3,3,0,0,0-2.54-2,33.9,33.9,0,0,0-3.9-.26C17.59.54,15.29.5,13,.5M11.06,13.23V5.79l7.15,3.73-7.15,3.71" transform="translate(-0.5 -0.5)" fill="currentColor"></path>
  </symbol>
</svg>